<svg width="490" height="56" viewBox="0 0 490 56" fill="none" xmlns="http://www.w3.org/2000/svg">
<rect width="489.333" height="56" fill="#F0F0F7"/>
<path d="M18.9167 36.3333H33.0833L34.3333 35.2917V20.7083L33.0833 19.6667H18.9167L17.6667 20.7083V35.2917L18.9167 36.3333Z" fill="#1B1B1F"/>
<path d="M30.5833 28.4167H21.4167" stroke="#F1F4FD" stroke-width="1.5" stroke-miterlimit="10"/>
<path d="M47.344 32.5V21.3H49.808V25.732H54.352V21.3H56.816V32.5H54.352V28.004H49.808V32.5H47.344ZM63.3083 32.692C62.0069 32.692 60.9349 32.2813 60.0923 31.46C59.2496 30.628 58.8283 29.5507 58.8283 28.228C58.8283 26.98 59.2283 25.924 60.0283 25.06C60.8283 24.196 61.8416 23.764 63.0683 23.764C64.4229 23.764 65.4576 24.212 66.1723 25.108C66.8869 26.004 67.2443 27.108 67.2443 28.42C67.2443 28.548 67.2336 28.7613 67.2123 29.06H61.2443C61.3616 29.604 61.6016 30.02 61.9643 30.308C62.3269 30.596 62.7856 30.74 63.3403 30.74C64.0976 30.74 64.7909 30.4467 65.4203 29.86L66.8123 31.092C65.9483 32.1587 64.7803 32.692 63.3083 32.692ZM61.2123 27.54H64.8763C64.8016 26.9853 64.6043 26.5427 64.2843 26.212C63.9749 25.8813 63.5696 25.716 63.0683 25.716C62.5776 25.716 62.1669 25.8813 61.8363 26.212C61.5163 26.532 61.3083 26.9747 61.2123 27.54ZM71.4888 32.66C70.6461 32.66 69.9421 32.4253 69.3768 31.956C68.8221 31.4867 68.5448 30.836 68.5448 30.004C68.5448 29.0973 68.8541 28.4147 69.4728 27.956C70.1021 27.4973 70.9448 27.268 72.0008 27.268C72.7154 27.268 73.4141 27.3853 74.0968 27.62V27.476C74.0968 26.4307 73.4834 25.908 72.2568 25.908C71.5208 25.908 70.7314 26.0627 69.8888 26.372L69.2808 24.516C70.3261 24.0573 71.4354 23.828 72.6088 23.828C73.8994 23.828 74.8648 24.148 75.5048 24.788C76.1234 25.4067 76.4328 26.3187 76.4328 27.524V32.5H74.0808V31.572C73.4301 32.2973 72.5661 32.66 71.4888 32.66ZM72.2248 30.98C72.7901 30.98 73.2488 30.8413 73.6008 30.564C73.9528 30.276 74.1288 29.9133 74.1288 29.476V29.044C73.6701 28.8307 73.1528 28.724 72.5768 28.724C72.0434 28.724 71.6274 28.8307 71.3288 29.044C71.0408 29.2467 70.8968 29.5453 70.8968 29.94C70.8968 30.26 71.0194 30.516 71.2648 30.708C71.5101 30.8893 71.8301 30.98 72.2248 30.98ZM82.0455 32.66C80.9788 32.66 80.0615 32.26 79.2935 31.46C78.5255 30.66 78.1415 29.572 78.1415 28.196C78.1415 26.8307 78.5202 25.7533 79.2775 24.964C80.0455 24.164 80.9682 23.764 82.0455 23.764C83.1122 23.764 84.0028 24.1907 84.7175 25.044V20.82H87.1495V32.5H84.7175V31.268C84.0348 32.196 83.1442 32.66 82.0455 32.66ZM81.1815 29.94C81.5868 30.3773 82.0828 30.596 82.6695 30.596C83.2562 30.596 83.7468 30.3773 84.1415 29.94C84.5468 29.492 84.7495 28.9107 84.7495 28.196C84.7495 27.5027 84.5468 26.9373 84.1415 26.5C83.7468 26.052 83.2562 25.828 82.6695 25.828C82.0828 25.828 81.5868 26.052 81.1815 26.5C80.7762 26.9373 80.5735 27.5133 80.5735 28.228C80.5735 28.9213 80.7762 29.492 81.1815 29.94Z" fill="#55555C"/>
<path d="M469.333 26L465.33 22L461.333 26" stroke="#93939B" stroke-width="1.5" stroke-miterlimit="10"/>
<path d="M461.333 30L465.337 34L469.333 30" stroke="#0E0E10" stroke-width="1.5" stroke-miterlimit="10"/>
</svg>
